<svg width="518" height="316" viewBox="0 0 518 316" fill="none" xmlns="http://www.w3.org/2000/svg">
<path fill-rule="evenodd" clip-rule="evenodd" d="M241.159 194.567L247.982 225.75L258.181 231.693L246.735 179.526H169.035L183.562 113.125L170.136 105.275L155.828 170.795L128.901 155.02V132.129L107.697 119.729V136.604L115.034 140.933V163.825L152.527 185.836L143.649 226.484L157.076 234.334L165.733 194.714L241.159 194.567ZM210.563 99.5518L231.987 112.098L244.901 171.015L233.895 161.404L225.311 122.077L210.563 113.419V99.5518ZM210.563 117.454L222.229 124.351L230.153 160.523H190.9L198.824 124.351L210.563 117.454ZM157.883 238.663L139.687 228.024L148.564 187.377L111.512 165.659V142.767L105.936 139.466L62.5003 164.925L0.0615234 128.313V11.7267L19.138 0.574219L38.1411 11.7267V105.495L62.5003 119.802L86.8595 105.495V11.7267L105.863 0.574219L124.939 11.7267V105.495L149.665 119.949V142.841L157.369 147.39L167.347 101.68L210.563 76.3665L253.778 101.606L263.83 147.463L330.892 108.136L412.627 156.047V193.393L437.28 207.847L453.495 198.382C466.921 189.798 480.862 188.551 489.226 193.613L505.221 202.858C517.841 209.168 519.895 223.109 515.566 241.965C508.523 265.077 494.142 282.539 472.571 294.645L437.353 315.336L374.621 278.577V179.013L349.968 164.558V241.525L330.965 252.677L311.888 241.525V164.338L272.635 187.377L281.513 227.951L263.317 238.59L244.974 227.951L238.444 198.016H182.829L176.299 227.951L157.883 238.663ZM412.627 255.392L437.28 269.846L453.495 260.381C469.049 250.99 473.672 239.544 474.919 230.813C474.038 231.326 473.158 231.84 472.571 232.207L437.353 252.897L412.7 238.443L412.627 255.392ZM329.057 154.14L315.263 162.211V239.47L329.057 247.541V154.14ZM435.519 293.251L391.716 267.571V222.302L435.519 247.981V231.106L391.716 205.426V168.08L332.946 133.596V150.471L377.922 176.811V276.376L435.445 310.2V293.251H435.519ZM104.175 23.8329L90.3079 15.6886V105.421L104.175 113.566V23.8329ZM17.3037 23.8329L3.51002 15.7621V126.332L60.7394 159.936V143.061L17.3037 117.601V23.8329Z" fill="white"/>
<path fill-rule="evenodd" clip-rule="evenodd" d="M313.869 298.824H310.86V280.262H313.869C319.518 280.262 323.407 284.15 323.407 289.506C323.407 294.936 319.518 298.824 313.869 298.824ZM313.869 301.466C320.986 301.466 326.268 296.477 326.268 289.506C326.268 282.61 320.986 277.547 313.869 277.547H308.072V301.392H313.869V301.466Z" fill="white"/>
<path fill-rule="evenodd" clip-rule="evenodd" d="M271.974 301.759C273.955 301.759 275.863 300.732 277.257 298.017L287.749 277.62H284.594L274.909 296.477C273.955 298.384 273.001 299.045 272.047 299.045C270.947 299.045 269.993 298.238 269.993 296.256V277.547H267.205V296.256C267.205 299.925 269.333 301.759 271.974 301.759Z" fill="white"/>
<path fill-rule="evenodd" clip-rule="evenodd" d="M291.638 282.977H288.923C288.923 280.115 291.271 277.254 295.6 277.254C299.928 277.254 302.643 280.262 302.643 283.637C302.643 285.472 301.836 287.012 300.516 287.966C304.037 288.48 306.385 291.121 306.385 294.423C306.385 298.238 303.45 301.76 298.314 301.76C292.298 301.76 290.097 297.651 290.097 295.156H293.032C293.032 296.917 295.159 299.045 298.241 299.045C301.323 299.045 303.597 296.624 303.597 294.203C303.597 291.781 301.616 290.02 299.121 290.02H294.572V287.379H296.04C298.168 287.379 299.855 285.912 299.855 283.711C299.855 281.509 298.168 279.822 295.526 279.822C292.885 279.969 291.638 281.803 291.638 282.977Z" fill="white"/>
<path fill-rule="evenodd" clip-rule="evenodd" d="M262.803 282.977H265.518C265.518 280.115 263.17 277.254 258.841 277.254C254.512 277.254 251.797 280.262 251.797 283.637C251.797 285.472 252.605 287.012 253.925 287.966C250.404 288.48 248.056 291.121 248.056 294.423C248.056 298.238 250.991 301.76 256.126 301.76C262.143 301.76 264.344 297.651 264.344 295.156H261.409C261.409 296.917 259.281 299.045 256.2 299.045C253.118 299.045 250.844 296.624 250.844 294.203C250.844 291.781 252.825 290.02 255.319 290.02H259.868V287.379H258.401C256.273 287.379 254.586 285.912 254.586 283.711C254.586 281.509 256.273 279.822 258.914 279.822C261.629 279.969 262.803 281.803 262.803 282.977Z" fill="white"/>
<path fill-rule="evenodd" clip-rule="evenodd" d="M206.16 286.132C207.113 282.39 210.342 279.969 213.717 279.969C216.945 279.969 220.247 281.803 220.687 286.132H206.16ZM220.54 300.219L227.07 295.083V291.635L218.486 298.238C217.312 299.192 216.138 299.119 215.111 297.945L206.233 288.773H223.549V287.452C223.549 280.922 218.706 277.254 213.643 277.254C208.214 277.254 203.078 282.243 203.078 287.159C203.078 289.067 203.592 290.314 205.353 292.075L212.837 299.706C215.331 302.2 217.826 302.347 220.54 300.219Z" fill="white"/>
<path fill-rule="evenodd" clip-rule="evenodd" d="M175.197 301.467H186.203V298.825H175.197C170.355 298.825 165.365 296.111 165.365 289.654C165.365 284.298 169.254 280.336 174.904 280.336H179.306V288.627C179.306 291.341 177.765 293.689 174.683 293.689C171.675 293.689 170.135 291.341 170.135 288.627H167.346C167.346 292.882 170.061 296.331 174.683 296.331C179.379 296.331 182.094 292.882 182.094 288.627V277.621H174.904C167.713 277.621 162.504 282.757 162.504 289.654C162.577 296.918 168.154 301.467 175.197 301.467Z" fill="white"/>
<path fill-rule="evenodd" clip-rule="evenodd" d="M234.628 298.824H231.62V280.262H234.628C240.278 280.262 244.167 284.15 244.167 289.506C244.093 294.936 240.205 298.824 234.628 298.824ZM234.628 301.466C241.745 301.466 247.028 296.477 247.028 289.506C247.028 282.61 241.745 277.547 234.628 277.547H228.832V301.392H234.628V301.466Z" fill="white"/>
<path fill-rule="evenodd" clip-rule="evenodd" d="M190.679 287.452V280.188H193.32C196.181 280.188 197.796 281.582 197.796 283.783C197.796 285.911 196.108 287.452 193.613 287.452H190.679ZM190.679 298.824V290.167H195.228C198.163 290.167 200.217 291.928 200.217 294.496C200.217 297.064 198.163 298.824 194.861 298.824H190.679ZM195.008 301.466C199.777 301.466 203.078 298.531 203.078 294.422C203.078 291.414 201.171 289.066 198.383 288.112C199.85 287.085 200.657 285.471 200.657 283.637C200.657 280.262 197.942 277.547 193.613 277.547H187.891V301.392H195.008V301.466Z" fill="white"/>
<path fill-rule="evenodd" clip-rule="evenodd" d="M162.725 298.825H154.214C151.352 298.825 150.325 297.431 150.325 296.037C150.325 294.79 150.986 293.836 152.086 292.075L160.45 277.621H157.295L149.665 290.681C148.344 292.882 147.537 294.276 147.537 296.257C147.537 298.972 149.518 301.467 153.847 301.467H162.652V298.825H162.725Z" fill="white"/>
<path fill-rule="evenodd" clip-rule="evenodd" d="M134.771 277.621V280.263H141.667V301.467H144.456V280.263H151.352V277.621H134.771Z" fill="white"/>
<path fill-rule="evenodd" clip-rule="evenodd" d="M119.068 285.4V301.468H121.856V290.903L135.357 301.468H139.539L128.24 292.517C131.835 291.93 134.623 288.849 134.623 285.033C134.623 280.631 131.248 277.329 126.846 277.329C122.297 277.256 119.068 280.631 119.068 285.4ZM126.772 279.971C129.56 279.971 131.688 282.098 131.688 285.107C131.688 288.041 129.487 290.169 126.772 290.169C123.984 290.169 121.856 288.041 121.856 285.107C121.856 282.098 124.058 279.971 126.772 279.971Z" fill="white"/>
<path fill-rule="evenodd" clip-rule="evenodd" d="M104.248 290.167L108.577 282.39C109.457 280.776 110.338 280.042 111.512 280.042C112.906 280.042 113.933 281.143 113.933 283.417V290.167H104.248ZM111.585 277.254C109.311 277.254 107.403 278.575 106.009 281.143L94.7832 301.466H97.9382L102.781 292.809H113.933V301.466H116.721V283.27C116.721 279.382 114.447 277.254 111.585 277.254Z" fill="white"/>
</svg>
